{
  "asset": {
    "version": "2.0",
    "generator": "ModelConverterX"
  },
  "extensionsUsed": [
    "ASOBO_material_day_night_switch"
  ],
  "scene": 0,
  "scenes": [
    {
      "nodes": [
        0
      ]
    }
  ],
  "nodes": [
    {
      "name": "node0",
      "children": [
        1
      ]
    },
    {
      "name": "node1",
      "mesh": 0
    }
  ],
  "meshes": [
    {
      "primitives": [
        {
          "attributes": {
            "POSITION": 0,
            "NORMAL": 1,
            "TEXCOORD_0": 2
          },
          "indices": 3,
          "mode": 4,
          "material": 0
        }
      ],
      "name": "part000"
    }
  ],
  "accessors": [
    {
      "bufferView": 1,
      "byteOffset": 0,
      "componentType": 5126,
      "count": 2989,
      "type": "VEC3",
      "min": [
        -0.57257002592086792,
        -0.71425002813339233,
        83.924026489257813
      ],
      "max": [
        -0.22115999460220337,
        0.72341001033782959,
        85.112747192382813
      ]
    },
    {
      "bufferView": 2,
      "byteOffset": 0,
      "componentType": 5126,
      "count": 2989,
      "type": "VEC3"
    },
    {
      "bufferView": 3,
      "byteOffset": 0,
      "componentType": 5126,
      "count": 2989,
      "type": "VEC2"
    },
    {
      "bufferView": 0,
      "byteOffset": 0,
      "componentType": 5125,
      "count": 15858,
      "type": "SCALAR"
    }
  ],
  "materials": [
    {
      "name": "material00",
      "pbrMetallicRoughness": {
        "baseColorFactor": [
          0.5,
          0.5,
          0.5,
          1.0
        ],
        "roughnessFactor": 1.0,
        "metallicFactor": 1.0,
        "baseColorTexture": {
          "index": 0
        }
      },
      "emissiveFactor": [
        0.0,
        0.0,
        0.0
      ],
      "extensions": {
        "ASOBO_material_day_night_switch": {
          "enabled": true
        }
      }
    }
  ],
  "textures": [
    {
      "source": 0,
      "name": "combinaci贸ndecapa1-texturadifusi贸n"
    }
  ],
  "images": [
    {
      "uri": "combinaci贸ndecapa1-texturadifusi贸n.png"
    }
  ],
  "bufferViews": [
    {
      "buffer": 0,
      "byteOffset": 0,
      "byteLength": 63432
    },
    {
      "buffer": 0,
      "byteOffset": 63432,
      "byteLength": 35868,
      "byteStride": 12
    },
    {
      "buffer": 0,
      "byteOffset": 99300,
      "byteLength": 35868,
      "byteStride": 12
    },
    {
      "buffer": 0,
      "byteOffset": 135168,
      "byteLength": 23912,
      "byteStride": 8
    }
  ],
  "buffers": [
    {
      "byteLength": 159080,
      "uri": "a-removebg-preview.bin"
    }
  ]
}